<?xml version="1.0" encoding="UTF-8"?>
<svg xmlns="http://www.w3.org/2000/svg" viewBox="0 0 120 40">
  <g fill="none" fill-rule="evenodd">
    <path fill="#E4312B" d="M23.463 7.229a19.508 19.508 0 0 1 8.168 15.835c0 6.19-2.875 11.712-7.37 15.307l-1.957-3.075a15.446 15.446 0 0 0 5.525-11.833c0-4.964-2.32-9.378-5.925-12.26l1.56-3.974zm37.955 25.65v-13.41c0-6.2-3.49-9.96-9.43-9.96-3.649 0-6.54 1.657-8.392 4.07V1.897h-5.57v30.983h5.57V19.07c0-3.65 2.23-5.77 5.6-5.77 3.45 0 5.468 1.976 5.468 5.657v13.922h6.754zm22.842 0V19.101c0-3.576-2.15-5.8-5.363-5.8-3.316 0-5.275 2.019-5.275 5.675v13.903h-6.764V10.005h5.58v2.786c1.883-2.076 4.4-3.282 7.56-3.282 6.069 0 9.65 3.78 9.65 9.86v13.51h-5.388zm23.294-9.672c0 6.118-4.724 10.167-11.14 10.167-6.466 0-11.15-4.049-11.15-10.167 0-6.118 4.723-10.168 11.15-10.168 6.465 0 11.14 4.05 11.14 10.168zm-16.504 0c0 3.391 2.15 5.728 5.364 5.728 3.253 0 5.354-2.337 5.354-5.728 0-3.402-2.1-5.728-5.354-5.728-3.214 0-5.364 2.326-5.364 5.728z"/>
    <path fill="#E4312B" d="M15.3 3.875a19.508 19.508 0 0 0-8.168 15.835c0 6.19 2.874 11.712 7.37 15.307l1.957-3.075a15.446 15.446 0 0 1-5.526-11.833c0-4.964 2.32-9.378 5.926-12.26l-1.56-3.974z"/>
  </g>
</svg>